<?xml version="1.0" standalone="no"?>
<!DOCTYPE svg PUBLIC "-//W3C//DTD SVG 20010904//EN"
 "http://www.w3.org/TR/2001/REC-SVG-20010904/DTD/svg10.dtd">
<svg version="1.0" xmlns="http://www.w3.org/2000/svg"
 width="700.000000pt" height="700.000000pt" viewBox="0 0 700.000000 700.000000"
 preserveAspectRatio="xMidYMid meet">
<metadata>
Created by potrace 1.14, written by Peter Selinger 2001-2017
</metadata>
<g transform="translate(0.000000,700.000000) scale(0.100000,-0.100000)"
fill="#000000" stroke="none">
<path d="M1091 4654 c-130 -35 -211 -143 -211 -279 0 -140 82 -246 218 -280
52 -14 116 -16 390 -13 320 3 328 4 380 27 102 46 172 154 172 266 0 112 -70
220 -172 266 -52 24 -59 24 -388 26 -271 2 -345 -1 -389 -13z"/>
<path d="M3295 4663 c-467 -37 -898 -332 -1115 -763 -96 -190 -134 -353 -134
-560 1 -160 14 -232 64 -372 150 -414 586 -675 1051 -628 361 36 705 224 930
510 34 44 66 80 69 80 4 0 16 -22 29 -49 34 -76 92 -161 161 -234 419 -448
1169 -409 1665 88 496 495 536 1246 91 1663 -81 75 -133 111 -234 162 -306
152 -685 140 -1032 -35 -271 -136 -508 -382 -634 -655 l-39 -85 -420 3 c-473
3 -480 2 -561 -69 -134 -118 -134 -320 0 -438 69 -60 112 -71 293 -71 l156 -1
-76 -73 c-138 -133 -296 -205 -472 -214 -120 -6 -201 13 -285 67 -65 43 -102
87 -140 169 -35 75 -43 232 -17 331 86 334 406 591 733 591 69 0 102 -6 175
-31 151 -52 262 -34 353 57 105 105 110 278 10 391 -70 80 -237 142 -436 163
-94 10 -106 10 -185 3z m2240 -597 c111 -29 202 -100 248 -193 79 -157 58
-377 -55 -568 -53 -91 -192 -230 -283 -283 -147 -87 -333 -123 -466 -92 -156
37 -262 143 -299 299 -19 80 -8 229 23 319 68 197 245 390 434 474 123 55 289
73 398 44z"/>
<path d="M483 3774 c-57 -21 -136 -93 -164 -151 -17 -37 -23 -65 -23 -123 0
-94 26 -152 95 -214 87 -78 79 -77 650 -74 501 3 504 3 546 26 105 55 158 144
158 262 0 118 -53 207 -158 262 -42 23 -44 23 -552 25 -434 1 -516 0 -552 -13z"/>
<path d="M1091 2904 c-129 -35 -211 -143 -211 -279 0 -139 82 -245 215 -280
84 -21 495 -22 579 0 114 30 192 113 216 232 21 101 -32 229 -119 286 -73 49
-132 57 -391 56 -173 0 -249 -4 -289 -15z"/>
</g>
</svg>
